<svg
  xmlns="http://www.w3.org/2000/svg"
  xml:space="preserve"
  style="enable-background:new 0 0 25 25"
  viewBox="0 0 25 25"
>
  <style>
    .fill-white { fill:#fff }
  </style>
  <path id="first-crone" class="fill-white" d=
    "M3.4 18h1.3c0-.6.3-1.8-.1-2.4-.4-.7-1.3-1.4-2.1-2.2-.3-.3-1.1-.9-1.1-1.8 0-1.3.9-1.6 1.6-1.6.2 0 .5 0 .7.1.1-.4.3-.9.5-1.2-.5-.2-.9-.3-1.3-.3-1.2.1-2.9.9-2.9 3 0 1.4.9 2.2 1.7 3 .8.9 1.6 1.7 1.7 3.4" >
  </path>
  <path class="fill-white" d=
    "M3.4 19.1h17.5v1.2H3.4zM3.4 21.3h17.5v1.2H3.4zM7.1 18h1.4c.1-1 .5-2 .3-2.7-.3-.9-1.4-1.8-2.1-2.5-.6-.6-.9-1.1-.9-1.9 0-.8.7-1.6 1.7-1.6 1.1 0 1.8 1.1 3.2 1.1V9.1C9.8 9 9 8 7.4 8c-.9 0-1.6.3-2.2.9-.5.5-.8 1.3-.8 2.1 0 1.2.6 1.9 1.2 2.7.7.8 1.5 1.9 1.5 4.3M21.4 9.9c.6 0 1.6.4 1.6 1.6 0 1-.8 1.5-1.1 1.8-.8.8-1.7 1.5-2.1 2.2-.4.7-.1 1.8-.1 2.4H21c.1-1.7.9-2.6 1.7-3.5.8-.8 1.7-1.6 1.7-3 0-2.1-1.7-2.9-2.9-2.9-.4 0-.8.1-1.2.2.3.4.4.8.5 1.2.1.1.3 0 .6 0M13.7 10.3c1.4 0 2.1-1.1 3.2-1.1 1 0 1.7.8 1.7 1.6s-.3 1.3-.9 1.9c-.7.7-1.8 1.7-2.1 2.5-.3.8.2 1.7.3 2.7h1.4c0-2.5.8-3.6 1.5-4.5.6-.7 1.2-1.5 1.2-2.7 0-.8-.3-1.5-.8-2.1-.7-.3-1.5-.6-2.3-.6-1.6 0-2.4 1-3.2 1.1v1.2zM11.5 8.1v3.7c0 2.4-.6 3-.6 3.8 0 1 .4 1.3.6 2.4h1.3c.2-1.1.6-1.4.6-2.4 0-.8-.6-1.4-.6-3.8V8.1h-1.3zM11.5 3.9c-.7.2-1.2.9-1.2 1.7 0 1 .8 1.8 1.8 1.8s1.8-.8 1.8-1.8c0-.8-.5-1.5-1.2-1.7V2.5H14V1.4h-1.3V0h-1.2v1.4h-1.3v1.2h1.3v1.3zm.6 1c.4 0 .7.3.7.7 0 .4-.3.7-.7.7-.4 0-.7-.3-.7-.7 0-.4.3-.7.7-.7"
  ></path>
</svg>